<svg width="24" height="24" viewBox="0 0 24 24" fill="none" xmlns="http://www.w3.org/2000/svg">
<circle cx="12" cy="12" r="12" fill="#00FF55"/>
<path d="M7 5H16C17.1046 5 18 5.89543 18 7V17C18 18.1046 17.1046 19 16 19H7V5Z" fill="white"/>
<path d="M5.5 5H6.5V19H5.5V5Z" fill="white"/>
<path d="M15.75 12C15.8881 12 16 12.1119 16 12.25V12.25C16 12.3881 15.8881 12.5 15.75 12.5L9.25 12.5C9.11193 12.5 9 12.3881 9 12.25V12.25C9 12.1119 9.11193 12 9.25 12L15.75 12Z" fill="#00FF55"/>
<path d="M15.75 15C15.8881 15 16 15.1119 16 15.25V15.25C16 15.3881 15.8881 15.5 15.75 15.5L9.25 15.5C9.11193 15.5 9 15.3881 9 15.25V15.25C9 15.1119 9.11193 15 9.25 15L15.75 15Z" fill="#00FF55"/>
<path d="M15.75 13.5C15.8881 13.5 16 13.6119 16 13.75V13.75C16 13.8881 15.8881 14 15.75 14L9.25 14C9.11193 14 9 13.8881 9 13.75V13.75C9 13.6119 9.11193 13.5 9.25 13.5L15.75 13.5Z" fill="#00FF55"/>
<path d="M14.75 16.5C14.8881 16.5 15 16.6119 15 16.75V16.75C15 16.8881 14.8881 17 14.75 17L10.25 17C10.1119 17 10 16.8881 10 16.75V16.75C10 16.6119 10.1119 16.5 10.25 16.5L14.75 16.5Z" fill="#00FF55"/>
<path d="M16.4375 9.9375C16.7482 9.9375 17 10.1893 17 10.5V10.5C17 10.8107 16.7482 11.0625 16.4375 11.0625L8.5625 11.0625C8.25184 11.0625 8 10.8107 8 10.5V10.5C8 10.1893 8.25184 9.9375 8.5625 9.9375L16.4375 9.9375Z" fill="#00FF55"/>
<path d="M16.4375 10.5C16.4375 9.45571 16.0227 8.45419 15.2842 7.71577C14.5458 6.97734 13.5443 6.5625 12.5 6.5625C11.4557 6.5625 10.4542 6.97734 9.71577 7.71577C8.97734 8.45419 8.5625 9.45571 8.5625 10.5L12.5 10.5H16.4375Z" fill="#00FF55"/>
<path d="M11.6686 7.97099C11.6972 7.83416 11.6093 7.698 11.4697 7.69016C11.3231 7.68192 11.1757 7.69282 11.0313 7.72287C10.8041 7.77014 10.589 7.8638 10.3996 7.99799C10.2101 8.13217 10.0504 8.304 9.93043 8.50271C9.85418 8.62899 9.79501 8.7644 9.75416 8.9054C9.71525 9.03967 9.81452 9.16781 9.9531 9.18621V9.18621C10.0917 9.20461 10.2164 9.10557 10.2639 8.97407C10.2901 8.90126 10.3236 8.83101 10.3638 8.7644C10.4478 8.6253 10.5596 8.50502 10.6922 8.41109C10.8248 8.31716 10.9753 8.2516 11.1344 8.21851C11.2106 8.20266 11.288 8.19442 11.3654 8.19379C11.5052 8.19265 11.64 8.10783 11.6686 7.97099V7.97099Z" fill="white"/>
<path d="M11.9375 6.5625C11.9375 6.25184 12.1893 6 12.5 6V6C12.8107 6 13.0625 6.25184 13.0625 6.5625V7.125C13.0625 7.43566 12.8107 7.6875 12.5 7.6875V7.6875C12.1893 7.6875 11.9375 7.43566 11.9375 7.125V6.5625Z" fill="#00FF55"/>
</svg>
